<svg xmlns="http://www.w3.org/2000/svg" width="35" height="35" fill="none"><path d="M11.404 3.202c2.806 6.79 10.142 7.282 10.195 11.985-2.613 4.37-8.331 2.142-7.421.964-2.131.01-4.134-2.12-3.342-2.454-1.264-.61-2.442-3.18-1.03-3.673-1.263-1.07-.899-3.203.13-3.47-.663-1.264.772-3.192 1.468-3.352Z" fill="#0A489D"/><path d="m19.846 17.393-3.85 6.49s-9.22 1.435-12.713 2.229c-.943.515-.838 1.736-.268 2.611-.031-.555.162-1.076.697-1.367 2.794-.634 9.254-1.68 11.726-2.072a2.13 2.13 0 0 0 1.5-1.022s3.857-5.931 3.857-6.869c0-.937-.95 0-.95 0ZM4.943 30.937c.044.057.09.114.14.168.015-.058.03-.117.056-.172-.066.009-.13.005-.196.004Zm3.525 2.033c.006-.011.006-.023.013-.035-.012.007-.025.01-.038.016l.025.019Z" fill="#fff"/><path d="m27.383 11.31-1.071.92v.322c0 1.07.182 2.142.535 3.148.568 1.649 1.221 4.701-.215 7.851-1.231 2.699-3.78 3.588-5.901 3.61-1.628.031-3.063 1.082-3.717 2.57-.834 1.907-1.691 3.781-1.691 3.781-.729.996-3.92.953-3.834-.46-1.007 1.178-4.188 0-3.438-1.36-1.757.867-3.899-.793-3.341-2.003-1.608.236-3.032-2.698-1.425-3.577 3.492-.792 12.713-2.227 12.713-2.227l4.166-7.026 1.95-6.759a2.145 2.145 0 0 1 2.055-1.541c1.189 0 2.143.953 2.143 2.143v.149l1.07.459Z" fill="url(#a)"/><path d="M21.235 16.021c-1.938 7.198-10.882 6.32-10.056 4.295-3 .877-6.663-1.34-5.677-2.12C3.478 17.83.81 14.692 2.589 13.44c.513.256-.053-.033-.053-.033C.372 12.357.073 9.274 1.4 8.502c-1.424-1.52-.172-4.797.74-5.3 6.64 8.44 17.157 6.222 19.095 12.82Z" fill="url(#b)"/><path d="M7.109 18.73c-2.024-.364-4.691-3.502-2.914-4.754.515.257-.053-.032-.053-.032-2.164-1.05-2.463-4.135-1.134-4.906-1.129-1.203-.579-3.503.151-4.66a17.43 17.43 0 0 1-1.02-1.176c-.91.503-2.163 3.781-.739 5.302-1.327.77-1.028 3.854 1.136 4.904 0 0 .568.29.053.033-1.778 1.252.89 4.391 2.913 4.755-.683.543.87 1.773 2.884 2.185-1.123-.54-1.76-1.267-1.277-1.65Z" fill="#fff"/><path d="M28.091 3.833c.625.914.012 2.405.012 2.405s-1.607 0-2.22-.925c-.613-.913-.532-2.844-.532-2.844s2.128.44 2.74 1.364Zm5.979 4.035s-.902 1.388-1.861 1.654c-.949.266-2.059-.671-2.059-.671s.463-1.376 1.423-1.642c.948-.266 2.497.66 2.497.66ZM33.296.734s.346 1.793-.209 2.752c-.566.96-2.173 1.064-2.173 1.064s-.706-1.457-.14-2.417c.556-.96 2.522-1.399 2.522-1.399Z" fill="gold"/><path d="M11.49 33.625a.58.58 0 0 1-.425-.97c.382-.413 1.438-1.593 1.746-2.078a.578.578 0 1 1 .976.62c-.42.66-1.725 2.082-1.872 2.241a.573.573 0 0 1-.425.187Zm-3.437-1.357a.58.58 0 0 1-.339-1.048c.12-.085.286-.195.486-.328.605-.401 1.521-1.008 2.207-1.672a.577.577 0 1 1 .805.83c-.764.739-1.732 1.382-2.374 1.807a15.67 15.67 0 0 0-.448.303.582.582 0 0 1-.337.108ZM4.71 30.267a.578.578 0 0 1-.192-1.124l.355-.12c.817-.276 2.336-.79 3.222-1.333a.578.578 0 1 1 .604.986c-.995.61-2.594 1.152-3.453 1.443l-.344.118a.673.673 0 0 1-.193.03Zm15.35-17.733a.574.574 0 0 1-.404-.164c-.656-.64-1.509-1.247-2.412-1.89-2.048-1.456-4.565-3.249-6.088-6.414-.211.223-.46.56-.633.973-.123.288-.293.831-.076 1.245a.577.577 0 1 1-1.023.538c-.343-.65-.312-1.487.086-2.353.363-.792 1.086-1.674 1.763-1.83a.574.574 0 0 1 .664.342c1.35 3.265 3.807 5.014 5.977 6.557.94.67 1.83 1.302 2.55 2.004a.577.577 0 0 1-.404.992Zm.698 2.838a.58.58 0 0 1-.556-.739l1.354-4.695a2.739 2.739 0 0 1 2.612-1.96c1.5 0 2.72 1.22 2.72 2.721a.578.578 0 0 1-1.155 0c0-.876-.687-1.564-1.565-1.564-.689 0-1.306.463-1.502 1.127l-1.353 4.692a.579.579 0 0 1-.555.418Z" fill="#232323"/><path d="M13.377 34.77a3.83 3.83 0 0 1-1.277-.202c-.401-.144-.71-.36-.912-.626-.915.358-2.153.13-2.981-.443-.418-.29-.687-.642-.796-1.014-1.048.141-2.058-.303-2.664-.893-.423-.411-.665-.898-.7-1.373-.887-.232-1.6-1.08-1.89-1.945-.38-1.132-.046-2.18.85-2.67a.583.583 0 0 1 .15-.057c3.178-.721 10.91-1.945 12.481-2.192l.55-.927a.578.578 0 0 1 .995.59l-.69 1.162a.58.58 0 0 1-.409.276c-.091.014-9.087 1.418-12.584 2.2-.493.324-.34.977-.249 1.251.217.647.804 1.294 1.373 1.21a.576.576 0 0 1 .609.814c-.123.266.084.604.319.832.513.5 1.448.803 2.242.41a.577.577 0 0 1 .763.797c-.036.066-.146.265.307.578.637.441 1.792.59 2.185.128a.576.576 0 0 1 1.016.41c-.01.157.134.29.426.395.792.286 2.007.084 2.335-.275.159-.345.917-2.014 1.66-3.708.761-1.735 2.424-2.881 4.235-2.916 1.18-.011 4.055-.355 5.386-3.27 1.362-2.99.706-5.934.194-7.423a10.06 10.06 0 0 1-.568-3.337v-.321c0-.258.17-.483.418-.555l1.188-.342a.578.578 0 1 1 .32 1.111l-.77.222a8.92 8.92 0 0 0 .503 2.844c.57 1.656 1.295 4.928-.233 8.282-1.607 3.521-5.026 3.934-6.422 3.948-1.356.026-2.61.9-3.192 2.224-.838 1.91-1.697 3.79-1.697 3.79a.543.543 0 0 1-.059.1c-.452.614-1.453.916-2.412.916Z" fill="#232323"/><path d="M21.235 16.6a.576.576 0 0 1-.554-.416c-.88-2.994-3.736-4.018-7.352-5.312C9.637 9.551 5.472 8.06 2.095 4.062c-.266.394-.577 1.073-.706 1.893-.086.54-.144 1.538.432 2.153a.576.576 0 0 1-.061.847c-.348.277-.533.986-.452 1.72.052.476.301 1.642 1.479 2.213a.577.577 0 1 1-.506 1.04c-1.176-.57-1.97-1.739-2.123-3.125C.06 9.91.25 9.053.653 8.47.223 7.77.08 6.834.246 5.775c.216-1.367.909-2.69 1.613-3.08a.578.578 0 0 1 .734.148c3.24 4.118 7.43 5.616 11.126 6.94 3.77 1.35 7.025 2.515 8.07 6.074a.579.579 0 0 1-.555.742Z" fill="#232323"/><path d="M13.78 22.336c-1.154 0-2.146-.265-2.72-.748a1.472 1.472 0 0 1-.423-.563c-2.435.364-5.152-.853-5.74-1.987a1.186 1.186 0 0 1-.134-.454c-1.476-.567-2.965-2.11-3.274-3.502-.194-.878.078-1.629.768-2.114a.579.579 0 0 1 .666.946c-.205.144-.425.379-.306.918.253 1.143 1.789 2.58 2.987 2.796a.578.578 0 0 1 .35.93c.09.131.338.372.807.63.992.549 2.702 1.03 4.254.574a.578.578 0 0 1 .698.772c-.013.034-.027.07.092.17.726.61 3.502.835 5.86-.638a.58.58 0 0 1 .613.982 8.712 8.712 0 0 1-4.498 1.288ZM7.92 12.182c-2.48 0-6.765-3.149-6.81-3.182a.578.578 0 1 1 .686-.929c1.359 1.005 4.83 3.149 6.305 2.944a.578.578 0 1 1 .155 1.147 2.64 2.64 0 0 1-.336.02Z" fill="#232323"/><path d="M1.454 9.114a.583.583 0 0 1-.297-.082c-.274-.165-.39-.536-.226-.81.165-.275.494-.38.767-.215l.053.033a.578.578 0 0 1-.297 1.074Zm6.444 6.256c-2.655 0-5.248-1.253-5.566-1.413a.982.982 0 0 1-.204-.141.578.578 0 0 1 .732-.888c.42.207 3.298 1.57 5.868 1.234a.578.578 0 1 1 .15 1.146 7.335 7.335 0 0 1-.98.062Z" fill="#232323"/><path d="M2.536 13.986a.593.593 0 0 1-.564-.767.565.565 0 0 1 .715-.37l.033.01a.577.577 0 0 1-.184 1.127Zm3.04 4.809a.579.579 0 0 1-.012-1.157c.03 0 3.012-.076 4.937-1.148a.579.579 0 0 1 .562 1.01c-2.179 1.214-5.341 1.292-5.475 1.295h-.012Zm5.601 2.1a.578.578 0 0 1-.076-1.152s.932-.167 2.468-1.456a.582.582 0 0 1 .816.072.58.58 0 0 1-.072.815c-1.8 1.51-2.935 1.698-3.058 1.715a.593.593 0 0 1-.078.006Zm13.099-9.618c-.32 0-.631-.259-.631-.578 0-.319.204-.578.524-.578h.108a.578.578 0 1 1-.001 1.156Zm5.594 4.506a.579.579 0 0 1-.533-.354c-.042-.102-1.05-2.51-1.28-3.982-.614-3.934 2.306-7.154 2.43-7.289a.578.578 0 0 1 .852.783c-.027.029-2.665 2.953-2.138 6.327.208 1.334 1.193 3.688 1.204 3.711a.58.58 0 0 1-.535.804Zm-1.768-8.966c-.197 0-1.94-.034-2.703-1.184-.696-1.037-.635-2.97-.626-3.188a.577.577 0 0 1 .695-.542c.241.05 2.382.519 3.105 1.611.773 1.132.14 2.763.064 2.944a.58.58 0 0 1-.535.359Zm-2.163-3.59c.042.64.165 1.381.422 1.765.263.396.876.569 1.329.634.11-.442.186-1.083-.076-1.466-.26-.391-1.027-.725-1.675-.933Z" fill="#232323"/><path d="M31.848 10.148c-1.03 0-1.97-.767-2.072-.855a.58.58 0 0 1-.176-.626c.058-.17.596-1.677 1.817-2.016 1.061-.296 2.789.625 2.948.72a.583.583 0 0 1 .189.812c-.106.16-1.055 1.58-2.193 1.896a1.916 1.916 0 0 1-.513.069Zm-.98-1.496c.337.204.839.412 1.182.314.37-.102.803-.502 1.14-.894-.471-.207-1.123-.396-1.465-.305-.37.102-.674.533-.858.885Zm.044-3.524a.578.578 0 0 1-.52-.326c-.086-.177-.82-1.77-.118-2.962.66-1.143 2.667-1.62 2.893-1.67a.58.58 0 0 1 .694.454c.04.205.369 2.037-.275 3.151-.703 1.194-2.441 1.338-2.636 1.35l-.038.003Zm1.892-3.651c-.614.212-1.303.554-1.53.945-.245.413-.129 1.054.01 1.49.452-.095 1.06-.308 1.304-.72.244-.421.257-1.157.216-1.715Z" fill="#232323"/><defs><linearGradient id="a" x1="14.052" y1="3.202" x2="14.052" y2="34.195" gradientUnits="userSpaceOnUse"><stop stop-color="#0057B8"/><stop offset=".49" stop-color="#1160AC"/><stop offset=".594" stop-color="gold"/><stop offset="1" stop-color="gold"/></linearGradient><linearGradient id="b" x1="14.052" y1="3.202" x2="14.052" y2="34.195" gradientUnits="userSpaceOnUse"><stop stop-color="#0057B8"/><stop offset=".49" stop-color="#1160AC"/><stop offset=".594" stop-color="gold"/><stop offset="1" stop-color="gold"/></linearGradient></defs></svg>